# xmcd
#
# Track frame offsets:
#	150
#	15578
#	27421
#	40739
#	52005
#	68616
#	78303
#	101273
#	117316
#	125985
#	147555
#	159035
#
# Disc length: 2328 seconds
#
# Revision: 1
# Processed by: cddbd v1.5.2PL0 Copyright (c) Steve Scherf et al.
# Submitted via: audiograbber 1.80
#
DISCID=9a09160c
DTITLE=The Hot Seats - Feel
DYEAR=1900
DGENRE=
TTITLE0=No Plans
TTITLE1=Hard Working Man
TTITLE2=Mineola Rag
TTITLE3=Too Much Fun
TTITLE4=Damaged Goods
TTITLE5=Beasties in the Sugar
TTITLE6=Peaches
TTITLE7=Here To Get My Baby out of Jail
TTITLE8=Rattle Trap
TTITLE9=Reminisce
TTITLE10=Hell and Scissors
TTITLE11=I Wouldn't Take Her To a Dig Fight
EXTD=
EXTT0=
EXTT1=
EXTT2=
EXTT3=
EXTT4=
EXTT5=
EXTT6=
EXTT7=
EXTT8=
EXTT9=
EXTT10=
EXTT11=
PLAYORDER=
